{
  "asset": {
    "version": "2.0",
    "generator": "webgpu-dawn demo"
  },
  "buffers": [
    {
      "uri": "triangle.bin",
      "byteLength": 104
    }
  ],
  "bufferViews": [
    { "buffer": 0, "byteOffset": 0, "byteLength": 36 },
    { "buffer": 0, "byteOffset": 36, "byteLength": 36 },
    { "buffer": 0, "byteOffset": 72, "byteLength": 24 },
    { "buffer": 0, "byteOffset": 96, "byteLength": 8 }
  ],
  "accessors": [
    {
      "bufferView": 0,
      "componentType": 5126,
      "count": 3,
      "type": "VEC3",
      "max": [1.0, 1.0, 0.0],
      "min": [0.0, 0.0, 0.0]
    },
    {
      "bufferView": 1,
      "componentType": 5126,
      "count": 3,
      "type": "VEC3"
    },
    {
      "bufferView": 2,
      "componentType": 5126,
      "count": 3,
      "type": "VEC2"
    },
    {
      "bufferView": 3,
      "componentType": 5123,
      "count": 3,
      "type": "SCALAR"
    }
  ],
  "meshes": [
    {
      "name": "Triangle",
      "primitives": [
        {
          "attributes": {
            "POSITION": 0,
            "NORMAL": 1,
            "TEXCOORD_0": 2
          },
          "indices": 3
        }
      ]
    }
  ],
  "nodes": [
    { "mesh": 0 }
  ],
  "scenes": [
    { "nodes": [0] }
  ],
  "scene": 0
}
